<?xml version="1.0" encoding="utf-8"?>
<?xml-stylesheet href="BikeAnimation.css" type="text/css"?>
<!DOCTYPE svg PUBLIC "-//W3C//DTD SVG 1.1//EN" "http://www.w3.org/Graphics/SVG/1.1/DTD/svg11.dtd">

<svg class="bicycle" viewBox="0 0 588.35 360.02">
    <g class="pedal-left">
        <g class="pedal-left-inner">
            <rect class="stroke--round stroke--blue stroke--3px fill--yellow-light" x="195.03" y="221.14" width="44.03" height="10.5" transform="translate(-1.33 0.87) rotate(-0.36)" />
            <rect class="stroke--round stroke--3px fill--yellow-dark stroke--blue" x="202.67" y="221.14" width="28.76" height="10.5" transform="translate(-1.33 0.87) rotate(-0.36)" />
            <circle class="stroke--round stroke--3px fill--lavender stroke--blue" cx="217.05" cy="226.53" r="4.92" transform="translate(-1.34 0.87) rotate(-0.36)" />
        </g>
    </g>
    <g class="crankarm-left">
        <path class="stroke--round stroke--blue stroke--3px fill--yellow-light" d="M260.88,273.28a8.71,8.71,0,0,1-2-5.17c-0.1-2.66-45.48-41.23-45.48-41.23l3.9-3.88s49.23,35.94,50.8,36A8.75,8.75,0,1,1,260.88,273.28Z" transform="translate(0.07 -0.48)" />
        <circle class="stroke--round fill--lavender stroke--2px stroke--blue" cx="267.72" cy="267.61" r="2.33" />
    </g>
    <path class="fender-front stroke--round stroke--3px fill--lavender stroke--blue" d="M585.81,222.11l-13.81,2a100.2,100.2,0,1,0-194.52,47.07L361.88,286c-0.61-1.48-1.2-3-1.74-4.47A117.19,117.19,0,1,1,585.81,222.11Z" transform="translate(0.07 -0.48)" />
    <path class="fender-rear stroke--round stroke--3px fill--lavender stroke--blue" d="M242.43,241.61a120,120,0,0,1-2.06,22.2L224,259.14l-7.85-1.63a91.61,91.61,0,0,0,1.39-15.9c0-48.28-42.87-96.49-98.21-96.49-47.61,0-90.48,42.3-94.33,88.9l-8.22,3.58L1.53,246.54q-0.1-2.47-.1-4.93A120.5,120.5,0,0,1,242.43,241.61Z" transform="translate(0.07 -0.48)" />
    <g class="wheel-front">
        <g class="wheel-front-spokes stroke--blue">
            <line x1="457.99" y1="229.3" x2="416.21" y2="161.65" />
            <line x1="477.49" y1="222.18" x2="465.84" y2="143.52" />
            <line x1="469.22" y1="260.03" x2="479.87" y2="335.95" />
            <line x1="488.72" y1="252.91" x2="529.5" y2="317.82" />
            <line x1="457.99" y1="229.3" x2="416.21" y2="161.65" />
            <line x1="477.49" y1="222.18" x2="465.84" y2="143.52" />
            <line x1="469.22" y1="260.03" x2="479.87" y2="335.95" />
            <line x1="488.72" y1="252.91" x2="529.5" y2="317.82" />
            <line x1="462.42" y1="254.6" x2="394.77" y2="296.38" />
            <line x1="455.3" y1="235.1" x2="376.64" y2="246.75" />
            <line x1="493.15" y1="243.37" x2="569.07" y2="232.72" />
            <line x1="476.63" y1="229.66" x2="550.94" y2="183.09" />
            <line x1="457.99" y1="229.3" x2="416.21" y2="161.65" />
            <line x1="477.49" y1="222.18" x2="465.84" y2="143.52" />
            <line x1="469.22" y1="260.03" x2="479.87" y2="335.95" />
            <line x1="488.72" y1="252.91" x2="529.5" y2="317.82" />
            <line x1="457.99" y1="229.3" x2="416.21" y2="161.65" />
            <line x1="477.49" y1="222.18" x2="465.84" y2="143.52" />
            <line x1="469.22" y1="260.03" x2="479.87" y2="335.95" />
            <line x1="488.72" y1="252.91" x2="529.5" y2="317.82" />
            <line x1="462.42" y1="254.6" x2="394.77" y2="296.38" />
            <line x1="455.3" y1="235.1" x2="376.64" y2="246.75" />
            <line x1="493.15" y1="243.37" x2="569.07" y2="232.72" />
            <line x1="476.63" y1="229.66" x2="550.94" y2="183.09" />
            <line x1="457.99" y1="229.3" x2="416.21" y2="161.65" />
            <line x1="477.49" y1="222.18" x2="465.84" y2="143.52" />
            <line x1="469.22" y1="260.03" x2="479.87" y2="335.95" />
            <line x1="488.72" y1="252.91" x2="529.5" y2="317.82" />
            <line x1="464.31" y1="239.52" x2="416.21" y2="161.65" />
            <line x1="479.3" y1="232.72" x2="465.84" y2="143.52" />
            <line x1="468.21" y1="251.68" x2="479.87" y2="335.95" />
            <line x1="482.63" y1="242.69" x2="529.5" y2="317.82" />
            <line x1="474.92" y1="246.87" x2="394.77" y2="296.38" />
            <line x1="468.56" y1="233.13" x2="376.64" y2="246.75" />
            <line x1="482.78" y1="244.81" x2="569.07" y2="232.72" />
            <line x1="476.63" y1="229.66" x2="550.94" y2="183.09" />
            <line x1="454.97" y1="242.86" x2="377.58" y2="224.58" />
            <line x1="463.72" y1="224.04" x2="399.86" y2="176.66" />
            <line x1="484.64" y1="256.66" x2="545.85" y2="302.81" />
            <line x1="463.69" y1="245.26" x2="377.58" y2="224.58" />
            <line x1="474.86" y1="232.48" x2="399.86" y2="176.66" />
            <line x1="477.81" y1="251.59" x2="545.85" y2="302.81" />
            <line x1="477.24" y1="234.72" x2="568.13" y2="254.89" />
            <line x1="477.46" y1="252.34" x2="457.7" y2="335.01" />
            <line x1="462.29" y1="241.42" x2="409.78" y2="312.73" />
            <line x1="473.69" y1="249.68" x2="535.93" y2="166.74" />
            <line x1="468.4" y1="229.94" x2="488.01" y2="144.46" />
            <line x1="488.27" y1="230.14" x2="566.88" y2="218.14" />
            <line x1="487.2" y1="250.87" x2="564.15" y2="270.91" />
            <line x1="455.6" y1="228.45" x2="381.56" y2="208.56" />
            <line x1="454.52" y1="249.18" x2="378.83" y2="261.33" />
            <line x1="488.27" y1="230.14" x2="566.88" y2="218.14" />
            <line x1="487.2" y1="250.87" x2="564.15" y2="270.91" />
            <line x1="455.6" y1="228.45" x2="381.56" y2="208.56" />
            <line x1="454.52" y1="249.18" x2="378.83" y2="261.33" />
            <line x1="463.26" y1="224.32" x2="451.26" y2="145.71" />
            <line x1="483.99" y1="225.39" x2="504.03" y2="148.44" />
            <line x1="480.65" y1="247.15" x2="494.45" y2="333.76" />
            <line x1="488.27" y1="230.14" x2="566.88" y2="218.14" />
            <line x1="487.2" y1="250.87" x2="564.15" y2="270.91" />
            <line x1="455.6" y1="228.45" x2="381.56" y2="208.56" />
            <line x1="454.52" y1="249.18" x2="378.83" y2="261.33" />
            <line x1="488.27" y1="230.14" x2="566.88" y2="218.14" />
            <line x1="487.2" y1="250.87" x2="564.15" y2="270.91" />
            <line x1="455.6" y1="228.45" x2="381.56" y2="208.56" />
            <line x1="454.52" y1="249.18" x2="378.83" y2="261.33" />
            <line x1="463.26" y1="224.32" x2="451.26" y2="145.71" />
            <line x1="483.99" y1="225.39" x2="504.03" y2="148.44" />
            <line x1="480.65" y1="247.15" x2="494.45" y2="333.76" />
            <line x1="488.27" y1="230.14" x2="566.88" y2="218.14" />
            <line x1="487.2" y1="250.87" x2="564.15" y2="270.91" />
            <line x1="455.6" y1="228.45" x2="381.56" y2="208.56" />
            <line x1="454.52" y1="249.18" x2="378.83" y2="261.33" />
            <line x1="470.9" y1="232.68" x2="566.88" y2="218.14" />
            <line x1="481.78" y1="249.46" x2="564.15" y2="270.91" />
            <line x1="475.35" y1="233.75" x2="381.56" y2="208.56" />
            <line x1="467.33" y1="246.72" x2="378.83" y2="261.33" />
            <line x1="464.9" y1="235.81" x2="451.26" y2="145.71" />
            <line x1="479.66" y1="242.22" x2="504.03" y2="148.44" />
            <line x1="465.33" y1="241.24" x2="441.68" y2="331.03" />
            <line x1="480.65" y1="247.15" x2="494.45" y2="333.76" />
            <line x1="476.97" y1="222.05" x2="524.07" y2="157.98" />
            <line x1="452.67" y1="243.96" x2="386.26" y2="282.24" />
            <line x1="466.57" y1="259.38" x2="421.64" y2="321.49" />
            <line x1="470.03" y1="231.14" x2="524.07" y2="157.98" />
            <line x1="478.55" y1="245.11" x2="559.45" y2="197.22" />
            <line x1="466.47" y1="235.85" x2="386.26" y2="282.24" />
            <line x1="475.11" y1="247.61" x2="421.64" y2="321.49" />
            <line x1="461.39" y1="240.19" x2="391.1" y2="188.52" />
            <line x1="476.78" y1="231.78" x2="430.35" y2="153.14" />
            <line x1="473.15" y1="253.29" x2="515.37" y2="326.33" />
            <line x1="483.61" y1="239.46" x2="554.61" y2="290.95" />
        </g>
        <path class="stroke--round stroke--3px fill--yellow-dark stroke--blue" d="M433.13,133.16a114.37,114.37,0,1,0,146.68,68.18A114.38,114.38,0,0,0,433.13,133.16ZM507,335.42A100.95,100.95,0,1,1,567.19,206,100.94,100.94,0,0,1,507,335.42Z" transform="translate(0.07 -0.48)" />
        <path class="stroke--round stroke--3px fill--teal-light stroke--blue" d="M437.73,145.78a100.92,100.92,0,0,0-61.51,125.56c0.42,1.3.85,2.6,1.32,3.88a101,101,0,0,0,194.31-51.9A102.34,102.34,0,0,0,567.19,206,100.94,100.94,0,0,0,437.73,145.78Zm66.46,182a92.75,92.75,0,0,1-119-55.32q-1.34-3.68-2.36-7.39A92.78,92.78,0,1,1,504.19,327.74Z" transform="translate(0.07 -0.48)" />
        <rect class="stroke--round fill--teal-light stroke--2px stroke--blue" x="375.29" y="254.05" width="3.99" height="7.54" transform="translate(576.37 -154.02) rotate(81.47)" />
        <rect class="stroke--round fill--lavender stroke--2px stroke--blue" x="379.27" y="253.33" width="5.66" height="7.54" transform="translate(579.75 -159.39) rotate(81.47)" />
        <circle class="stroke--round stroke--3px fill--lavender stroke--blue" cx="472.37" cy="240.6" r="13.86" transform="translate(-53.8 176.18) rotate(-20.06)" />
        <circle class="fill--lavender-dark stroke--round stroke--3px stroke--blue" cx="472.37" cy="240.6" r="5.25" transform="translate(-53.8 176.18) rotate(-20.06)" />
        <line class="fill--teal stroke--round stroke--2px stroke--blue" x1="470.64" y1="235.18" x2="474.25" y2="245.05" />
    </g>
    <g class="seatpost">
        <path class="stroke--round stroke--3px fill--teal-light stroke--blue" d="M211.5,106.5a4.38,4.38,0,0,1-4.14-3L184,34.67a4.38,4.38,0,1,1,8.29-2.81l23.34,68.86A4.38,4.38,0,0,1,211.5,106.5Z" transform="translate(0.07 -0.48)" />
        <polygon class="stroke--round stroke--3px fill--teal-light stroke--blue" points="201.06 32.78 200.48 37.74 195.23 41.25 182.39 42.41 178.59 32.2 202.52 28.99 201.06 32.78" />
        <rect class="stroke--round stroke--3px fill--teal-light stroke--blue" x="193.81" y="68.84" width="13.81" height="8.14" rx="0.67" ry="0.67" transform="translate(-12.76 72.35) rotate(-19.94)" />
        <rect class="stroke--round stroke--3px fill--lavender stroke--blue" x="191.18" y="60.96" width="13.81" height="8.14" rx="0.67" ry="0.67" transform="translate(-10.23 70.98) rotate(-19.94)" />
    </g>
    <g class="wheel-rear">
        <g class="wheel-rear-spokes stroke--blue">
            <line x1="110.81" y1="225.99" x2="94.77" y2="148.11" />
            <line x1="131.57" y1="225.99" x2="147.61" y2="148.11" />
            <line x1="110.81" y1="258.71" x2="94.77" y2="333.67" />
            <line x1="131.57" y1="258.71" x2="147.61" y2="333.67" />
            <line x1="110.81" y1="225.99" x2="94.77" y2="148.11" />
            <line x1="131.57" y1="225.99" x2="147.61" y2="148.11" />
            <line x1="110.81" y1="258.71" x2="94.77" y2="333.67" />
            <line x1="131.57" y1="258.71" x2="147.61" y2="333.67" />
            <line x1="106.29" y1="251.27" x2="28.41" y2="267.31" />
            <line x1="106.29" y1="230.51" x2="28.41" y2="214.47" />
            <line x1="139.01" y1="251.27" x2="213.97" y2="267.31" />
            <line x1="128.19" y1="232.72" x2="213.97" y2="214.47" />
            <line x1="110.81" y1="225.99" x2="94.77" y2="148.11" />
            <line x1="131.57" y1="225.99" x2="147.61" y2="148.11" />
            <line x1="110.81" y1="258.71" x2="94.77" y2="333.67" />
            <line x1="131.57" y1="258.71" x2="147.61" y2="333.67" />
            <line x1="110.81" y1="225.99" x2="94.77" y2="148.11" />
            <line x1="131.57" y1="225.99" x2="147.61" y2="148.11" />
            <line x1="110.81" y1="258.71" x2="94.77" y2="333.67" />
            <line x1="131.57" y1="258.71" x2="147.61" y2="333.67" />
            <line x1="106.29" y1="251.27" x2="28.41" y2="267.31" />
            <line x1="106.29" y1="230.51" x2="28.41" y2="214.47" />
            <line x1="139.01" y1="251.27" x2="213.97" y2="267.31" />
            <line x1="128.19" y1="232.72" x2="213.97" y2="214.47" />
            <line x1="110.81" y1="225.99" x2="94.77" y2="148.11" />
            <line x1="131.57" y1="225.99" x2="147.61" y2="148.11" />
            <line x1="110.81" y1="258.71" x2="94.77" y2="333.67" />
            <line x1="131.57" y1="258.71" x2="147.61" y2="333.67" />
            <line x1="110.81" y1="225.99" x2="94.77" y2="148.11" />
            <line x1="131.57" y1="225.99" x2="147.61" y2="148.11" />
            <line x1="112.56" y1="250.52" x2="94.77" y2="333.67" />
            <line x1="130.25" y1="252.52" x2="147.61" y2="333.67" />
            <line x1="106.29" y1="251.27" x2="28.41" y2="267.31" />
            <line x1="106.29" y1="230.51" x2="28.41" y2="214.47" />
            <line x1="139.01" y1="251.27" x2="213.97" y2="267.31" />
            <line x1="128.19" y1="232.72" x2="213.97" y2="214.47" />
            <line x1="103.32" y1="237.69" x2="36.9" y2="193.97" />
            <line x1="118" y1="223.02" x2="74.27" y2="156.6" />
            <line x1="126.45" y1="260.83" x2="168.12" y2="325.18" />
            <line x1="141.13" y1="246.15" x2="205.48" y2="287.81" />
            <line x1="103.32" y1="237.69" x2="36.9" y2="193.97" />
            <line x1="118" y1="223.02" x2="74.27" y2="156.6" />
            <line x1="124.21" y1="257.38" x2="168.12" y2="325.18" />
            <line x1="135.25" y1="242.34" x2="205.48" y2="287.81" />
            <line x1="118" y1="258.77" x2="74.27" y2="325.18" />
            <line x1="103.32" y1="244.09" x2="36.9" y2="287.81" />
            <line x1="138.29" y1="237.47" x2="205.48" y2="193.97" />
            <line x1="120.37" y1="230.16" x2="168.12" y2="156.6" />
            <line x1="138.96" y1="237.17" x2="216.92" y2="252.86" />
            <line x1="130.85" y1="256.27" x2="196.25" y2="301.5" />
            <line x1="108.85" y1="224.37" x2="46.14" y2="180.29" />
            <line x1="100.73" y1="243.47" x2="25.47" y2="228.92" />
            <line x1="138.96" y1="237.17" x2="216.92" y2="252.86" />
            <line x1="130.85" y1="256.27" x2="196.25" y2="301.5" />
            <line x1="108.85" y1="224.37" x2="46.14" y2="180.29" />
            <line x1="100.73" y1="243.47" x2="25.47" y2="228.92" />
            <line x1="117.47" y1="223.12" x2="133.16" y2="145.17" />
            <line x1="136.57" y1="231.24" x2="181.8" y2="165.83" />
            <line x1="104.67" y1="253.23" x2="60.59" y2="315.95" />
            <line x1="125.97" y1="250.53" x2="109.22" y2="336.62" />
            <line x1="138.96" y1="237.17" x2="216.92" y2="252.86" />
            <line x1="130.85" y1="256.27" x2="196.25" y2="301.5" />
            <line x1="108.85" y1="224.37" x2="46.14" y2="180.29" />
            <line x1="100.73" y1="243.47" x2="25.47" y2="228.92" />
            <line x1="138.96" y1="237.17" x2="216.92" y2="252.86" />
            <line x1="130.85" y1="256.27" x2="196.25" y2="301.5" />
            <line x1="108.85" y1="224.37" x2="46.14" y2="180.29" />
            <line x1="100.73" y1="243.47" x2="25.47" y2="228.92" />
            <line x1="117.47" y1="223.12" x2="133.16" y2="145.17" />
            <line x1="136.57" y1="231.24" x2="181.8" y2="165.83" />
            <line x1="104.67" y1="253.23" x2="60.59" y2="315.95" />
            <line x1="125.97" y1="250.53" x2="109.22" y2="336.62" />
            <line x1="138.96" y1="237.17" x2="216.92" y2="252.86" />
            <line x1="130.85" y1="256.27" x2="196.25" y2="301.5" />
            <line x1="108.85" y1="224.37" x2="46.14" y2="180.29" />
            <line x1="100.73" y1="243.47" x2="25.47" y2="228.92" />
            <line x1="138.96" y1="237.17" x2="216.92" y2="252.86" />
            <line x1="130.85" y1="256.27" x2="196.25" y2="301.5" />
            <line x1="108.85" y1="224.37" x2="46.14" y2="180.29" />
            <line x1="107.14" y1="244.71" x2="25.47" y2="228.92" />
            <line x1="116.77" y1="226.6" x2="133.16" y2="145.17" />
            <line x1="136.57" y1="231.24" x2="181.8" y2="165.83" />
            <line x1="106.69" y1="250.36" x2="60.59" y2="315.95" />
            <line x1="125.97" y1="250.53" x2="109.22" y2="336.62" />
            <line x1="131.08" y1="225.69" x2="197.3" y2="181.67" />
            <line x1="138.85" y1="244.94" x2="217.07" y2="230.67" />
            <line x1="100.73" y1="237.93" x2="25.22" y2="251.11" />
            <line x1="131.08" y1="225.69" x2="197.3" y2="181.67" />
            <line x1="138.85" y1="244.94" x2="217.07" y2="230.67" />
            <line x1="113.35" y1="235.73" x2="25.22" y2="251.11" />
            <line x1="111.85" y1="254.92" x2="44.99" y2="300.11" />
            <line x1="105.94" y1="230.96" x2="61.92" y2="164.74" />
            <line x1="125.19" y1="223.19" x2="110.92" y2="144.96" />
            <line x1="116.84" y1="253.61" x2="131.36" y2="336.82" />
            <line x1="131.34" y1="244.33" x2="180.37" y2="317.04" />
        </g>
        <path class="stroke--round stroke--3px fill--yellow-dark stroke--blue" d="M121.62,127A114.37,114.37,0,1,0,236,241.37,114.38,114.38,0,0,0,121.62,127Zm0,215.32a100.95,100.95,0,1,1,101-101A100.94,100.94,0,0,1,121.62,342.32Z" transform="translate(0.07 -0.48)" />
        <path class="stroke--round stroke--3px fill--teal-light stroke--blue" d="M121.62,140.43A100.92,100.92,0,0,0,20.77,237.27c-0.05,1.37-.09,2.73-0.09,4.1A101,101,0,0,0,221,259.27a102.34,102.34,0,0,0,1.58-17.91A100.94,100.94,0,0,0,121.62,140.43Zm0,193.72a92.75,92.75,0,0,1-92.76-92.78c0-2.61.1-5.2,0.31-7.76A92.78,92.78,0,1,1,121.62,334.15Z" transform="translate(0.07 -0.48)" />
        <rect class="stroke--round fill--teal-light stroke--2px stroke--blue" x="24.09" y="221.15" width="3.99" height="7.54" transform="translate(251.74 243.86) rotate(101.53)" />
        <rect class="stroke--round fill--lavender stroke--2px stroke--blue" x="28.02" y="222.12" width="5.66" height="7.54" transform="translate(258.41 240.36) rotate(101.53)" />
    </g>
    <g class="wheel-rear-lines">
        <path class="stroke--round fill--none stroke--blue" d="M206.26,307.75a108.25,108.25,0,0,0,12.81-21" transform="translate(0.07 -0.48)" />
        <path class="stroke--round fill--none stroke--blue" d="M45.85,319.52a108.24,108.24,0,0,0,154-4.28" transform="translate(0.07 -0.48)" />
    </g>
    <circle class="cogset stroke--round stroke--3px fill--lavender stroke--blue" cx="121.7" cy="240.89" r="17.94" />
    <path class="stem stroke--round stroke--blue stroke--3px fill--yellow-light" d="M393.56,57.19A5.25,5.25,0,0,1,391.78,47l30.93-11.09a5.25,5.25,0,0,1,3.55,9.89L395.33,56.88A5.24,5.24,0,0,1,393.56,57.19Z" transform="translate(0.07 -0.48)" />
    <g class="brakes-front">
        <rect class="stroke--round fill--teal-light stroke--2px stroke--blue" x="435.02" y="152.76" width="10.69" height="7.51" transform="translate(-26.47 174.38) rotate(-22.06)" />
        <line class="stroke--round fill--teal-light stroke--2px stroke--blue" x1="440.09" y1="150.47" x2="442.79" y2="157.13" />
        <path class="stroke--round stroke--3px fill--none stroke--blue" d="M403.48,62.44s6.57-5.69,8.75,0c2.92,7.59-2.92,12.84,2.33,12.25" transform="translate(0.07 -0.48)" />
        <line class="stroke--round fill--none stroke--blue" x1="412.3" y1="73.63" x2="442.28" y2="156.66" />
    </g>
    <g class="frame">
        <path class="fill--yellow-light" d="M268.1,272a6.59,6.59,0,0,1-1.31-.13,6.74,6.74,0,0,1-5.08-4.41L200.44,89.74a6.77,6.77,0,0,1,6.39-9h188c-5.69-17-9.85-29.46-10.38-31.08-1-2.94.62-5.66,3.94-6.77a7.43,7.43,0,0,1,2.32-.39,5,5,0,0,1,4.9,3.45c0.28,0.83,45.45,127.15,50,138.46,4.33,10.85,31.55,52.39,31.81,52.76a5.88,5.88,0,0,1-9.55,6.85c-1.11-1.53-28.25-42.94-33.16-55.25-0.37-.93-1-2.47-1.88-4.54-4.81-11.54-15.91-38.14-25.91-67.56L273.18,269.65A6.78,6.78,0,0,1,268.1,272ZM223.3,114.56l6.79,19.71L270.68,252,401.93,101.88q-1.06-3.13-2.08-6.19l-0.47-1.41H216.3Z" transform="translate(0.07 -0.48)" />
        <path class="fill--blue" d="M390.73,44a3.44,3.44,0,0,1,3.48,2.42c0.44,1.33,45.43,127.12,50,138.54,4.41,11,31.73,52.74,32,53.07a4.38,4.38,0,0,1-7.11,5.11c-1-1.38-28.19-42.9-33-54.92-2.47-6.14-16.57-38.7-28.59-74.5L272.05,268.67a5.26,5.26,0,0,1-4,1.8,5.14,5.14,0,0,1-1-.11,5.23,5.23,0,0,1-4-3.43L201.85,89.25a5.27,5.27,0,0,1,5-7H396.94c-6-18-10.49-31.37-11-33.05-0.75-2.29.7-4.11,3-4.88a5.94,5.94,0,0,1,1.84-.31M270.11,254.94L403.63,102.22q-1.63-4.81-3.17-9.44H214.2l7.69,22.27,6.79,19.71,41.44,120.18M390.73,41a8.91,8.91,0,0,0-2.78.46c-4.12,1.38-6.13,4.94-4.91,8.66,0.52,1.57,4.38,13.14,9.73,29.12H206.83A8.27,8.27,0,0,0,199,90.21l61.28,177.7a8.25,8.25,0,0,0,6.23,5.4,8,8,0,0,0,1.58.16,8.28,8.28,0,0,0,6.21-2.82l132-151c9.79,28.48,20.42,54,25.1,65.19,0.86,2.06,1.5,3.6,1.88,4.53,4.94,12.39,32.22,54,33.34,55.56a7.38,7.38,0,0,0,12-8.61c-1.75-2.57-27.51-42.13-31.63-52.44-4.61-11.53-49.64-137.49-49.94-138.37A6.47,6.47,0,0,0,390.73,41h0ZM218.41,95.79H398.3l0.11,0.33,1.82,5.43-129,147.52L231.51,133.79l-6.79-19.71-6.31-18.29h0Z" transform="translate(0.07 -0.48)" />
    </g>
    <path class="seatpost-top stroke--round stroke--blue stroke--3px fill--yellow-light" d="M201.87,97.45l-5.84-16a1.73,1.73,0,0,1,1-2.2l10.56-3.83a1.73,1.73,0,0,1,2.2,1l1.23,3.31v2.87" transform="translate(0.07 -0.48)" />
    <g class="seat">
        <path class="stroke--round fill--none stroke--2px stroke--blue" d="M159.27,19.55s2.63,4.67,4.08,7.59,4.67,9.34,14.3,7.59c7.94-1.44,26.55-5.84,26.55-5.84" transform="translate(0.07 -0.48)" />
        <path class="stroke--round fill--none stroke--2px stroke--blue" d="M153.14,19.55s2.63,4.67,4.08,7.59,5,10.5,14.59,8.75c7.94-1.44,26.55-5.84,26.55-5.84" transform="translate(0.07 -0.48)" />
        <path class="stroke--round stroke--3px fill--yellow-dark stroke--blue" d="M187.57,35.6c12.77,1.28,26.84-12.55,36.76-15.46,7.76-2.28,16.63-.88,17.8-4.08,0.54-1.48,2-8.46-12.55-8.46S180.86,7,169.19,5.84,146-2.57,145,6.42c-0.88,7.59,3.5,14,19.55,16C177.33,24.1,173,34.14,187.57,35.6Z" transform="translate(0.07 -0.48)" />
        <path class="stroke--round stroke--3px fill--none stroke--blue" d="M166.27,22.76c7.88,0.58,13.6,3,19.81,1.63" transform="translate(0.07 -0.48)" />
        <path class="stroke--round stroke--3px opacity--02 fill--blue stroke--blue" d="M191.76,34.05c-4.08.72-8.61,1.36-12.08-.89a6.7,6.7,0,0,1-2.87-3.7,4.83,4.83,0,0,1,.94-4.49,21.21,21.21,0,0,0,5.64,0,5.91,5.91,0,0,0,2.24,4.58,12.19,12.19,0,0,0,4.72,2.25,26.62,26.62,0,0,0,9.42.83Z" transform="translate(0.07 -0.48)" />
        <path class="seat-highlight stroke--round stroke--2px" d="M162.2,15.14a46.24,46.24,0,0,0,8.91,1.93l1,0.15,10.8,0.88" transform="translate(0.07 -0.48)" />
        <path class="seat-highlight stroke--round stroke--2px" d="M153.91,10a14.16,14.16,0,0,0,4,3.26" transform="translate(0.07 -0.48)" />
    </g>
    <g class="chain-top">
        <line class="stroke--round fill--teal-light stroke--2px stroke--blue" x1="121.07" y1="222.52" x2="269.92" y2="239" />
        <line class="stroke--round stroke--dasharray stroke--3px fill--teal-light stroke--blue chain-move" x1="121.07" y1="222.52" x2="269.92" y2="239" />
    </g>
    <path class="stays stroke--round stroke--blue stroke--3px fill--yellow-light" d="M201.57,88.41s-67,135-67.07,135.13c-4.38,7.44-2.82,15.83,3.69,17.23l130.7,22c1.93,0.28,5.47,2.63,5,5.91s-3.9,4.41-5.62,4.41a4.94,4.94,0,0,1-.51,0S146.86,250,140,248.56s-7.6,2.17-12.69,4.38a12.06,12.06,0,0,1-15.76-5.69,11.16,11.16,0,0,1-1-3.06h10.17V238.5H110.59c0.54-3.17,2.31-4.41,4.9-6.56,3.62-3,7.88-2.63,12.25-11.82l-1.17,2.33c21.2-43.15,71-143.2,71-143.2l10.45-4" transform="translate(0.07 -0.48)" />
    <g class="cogset-top">
        <circle class="fill--lavender-dark stroke--round stroke--3px stroke--blue" cx="121.7" cy="240.89" r="5.25" />
        <line class="fill--teal stroke--round stroke--2px stroke--blue" x1="121.7" y1="235.64" x2="121.7" y2="246.15" />
    </g>
    <path class="fender-rear-post stroke--round fill--teal-light stroke--2px stroke--blue" d="M134.63,219.16a2.3,2.3,0,0,1-.54,0L9.2,198A2.61,2.61,0,0,1,7.26,195a2.45,2.45,0,0,1,2.87-2.05L135,214a2.61,2.61,0,0,1,1.94,3.06A2.49,2.49,0,0,1,134.63,219.16Z" transform="translate(0.07 -0.48)" />
    <path class="frame-sticker stroke--round fill--teal stroke--2px stroke--blue" d="M228.67,134.76a11.37,11.37,0,0,1-6.79-19.71Z" transform="translate(0.07 -0.48)" />
    <g class="welding">
        <line class="stroke--round stroke--blue stroke--3px fill--yellow-light" x1="213.02" y1="91.14" x2="218.86" y2="95.81" />
        <path class="stroke--round stroke--3px fill--none stroke--blue" d="M407.43,109.3a11,11,0,0,1-2.79,10.91" transform="translate(0.07 -0.48)" />
        <path class="stroke--round stroke--3px fill--none stroke--blue" d="M399.39,103.29a6.46,6.46,0,0,1,4.48.46" transform="translate(0.07 -0.48)" />
        <path class="stroke--round stroke--3px fill--none stroke--blue" d="M401.71,88.18a9.5,9.5,0,0,1-3.72,8" transform="translate(0.07 -0.48)" />
        <path class="stroke--round stroke--3px fill--none stroke--blue" d="M394.31,78.86a41.47,41.47,0,0,1,3.59,2.52" transform="translate(0.07 -0.48)" />
    </g>
    <g class="caps">
        <path class="stroke--round stroke--3px fill--lavender stroke--blue" d="M425,125.61l-13.88,5a1.52,1.52,0,0,1-2-.63l-1.85-3.29a1.52,1.52,0,0,1,1.14-1.77l13.88-5a1.52,1.52,0,0,1,2,.63l1.85,3.29A1.52,1.52,0,0,1,425,125.61Z" transform="translate(0.07 -0.48)" />
        <path class="stroke--round stroke--3px fill--lavender stroke--blue" d="M405.35,69.94l-14,4.74a1.52,1.52,0,0,1-2-.67l-1.78-3.33a1.52,1.52,0,0,1,1.17-1.74l14-4.74a1.52,1.52,0,0,1,2,.67l1.78,3.33A1.52,1.52,0,0,1,405.35,69.94Z" transform="translate(0.07 -0.48)" />
        <path class="stroke--round stroke--3px fill--lavender stroke--blue" d="M383.64,49.6l12.84-4.67s-1.75-5.25-8.17-3.5S383.64,49.6,383.64,49.6Z" transform="translate(0.07 -0.48)" />
    </g>
    <g class="handlebars">
        <path class="stroke--round stroke--3px fill--lavender stroke--blue" d="M493.92,46.4c-1.77.67-3.5,1.28-5.13,1.8-4.83,1.59-8.58,2.57-8.58,2.57-1.17-4.08-17.8-14.88-17.8-14.88,6.13-5.25,12.83-1.17,19.26-4.38,4.31-2.15,5.85-7.76,9.93-8.46,5.29-.93,3.13,4.36,2.42,9.19a11.67,11.67,0,0,0-.09,3.64C495.09,42.89,497.37,45.1,493.92,46.4Z" transform="translate(0.07 -0.48)" />
        <path class="stroke--round stroke--3px fill--yellow-dark stroke--blue" d="M424.48,49c5.09-.64,21.88-3.5,29.76-1.75s12.84,6.27,12.84,16.34-6.42,15.61-16.48,18.24S427,83.16,425.65,84s-3.5,8.75-.44,12.25h13.28a51.19,51.19,0,0,0,28.59-8.17c13.42-8.75,17.47-26.23,11.09-40.26C472.33,35,459.89,32.28,447.24,33.27c-15,1.17-23-1.46-25.53,2.19S419.81,49.6,424.48,49Z" transform="translate(0.07 -0.48)" />
        <g>
            <path class="stroke--round stroke--blue stroke--3px fill--yellow-light" d="M425.5,84c-1.31.88-3.5,8.75-.44,12.25h6.42c-3.06-3.5-.88-11.38.44-12.25,0.42-.28,2.08-0.34,4.46-0.37l-0.28-.11C430.62,83.73,426.22,83.55,425.5,84Z" transform="translate(0.07 -0.48)" />
            <path class="stroke--round stroke--3px opacity--02 fill--blue stroke--blue" d="M462.41,47.85a40.7,40.7,0,0,0-10-.46,24,24,0,0,1,3.57.46c7.88,1.75,12.84,6.27,12.84,16.34s-6.42,15.61-16.48,18.24A67.43,67.43,0,0,1,438,84.14l0.28,0.11a61.38,61.38,0,0,0,16.55-2c10.07-2.63,16.48-8.17,16.48-18.24S470.29,49.6,462.41,47.85Z" transform="translate(0.07 -0.48)" />
        </g>
        <g class="opacity--02">
            <path class="stroke--round fill--none stroke--2px stroke--blue" d="M433.44,34.17a10.47,10.47,0,0,0-1.27,10.72" transform="translate(0.07 -0.48)" />
            <path class="stroke--round fill--none stroke--2px stroke--blue" d="M445.66,34.51a15.37,15.37,0,0,0-1.42,9.86" transform="translate(0.07 -0.48)" />
            <path class="stroke--round fill--none stroke--2px stroke--blue" d="M460.62,33.81c-4,3.54-4.42,9.41-4.63,12.88" transform="translate(0.07 -0.48)" />
            <path class="stroke--round fill--none stroke--2px stroke--blue" d="M463.09,52a13.55,13.55,0,0,1,9.75-9.69" transform="translate(0.07 -0.48)" />
            <path class="stroke--round fill--none stroke--2px stroke--blue" d="M467.37,61.46c2.71-5.11,8.58-7.31,13.17-4.94" transform="translate(0.07 -0.48)" />
            <path class="stroke--round fill--none stroke--2px stroke--blue" d="M466.58,69.64a10.83,10.83,0,0,1,11.64,2.07" transform="translate(0.07 -0.48)" />
            <path class="stroke--round fill--none stroke--2px stroke--blue" d="M459.49,78.14c4.41-.7,8.85,3.52,8,7.65" transform="translate(0.07 -0.48)" />
            <path class="stroke--round fill--none stroke--2px stroke--blue" d="M451.31,82.3a12.58,12.58,0,0,1,3.52,9.91" transform="translate(0.07 -0.48)" />
            <path class="stroke--round fill--none stroke--2px stroke--blue" d="M439.38,84.62a10.72,10.72,0,0,1,3,11.2" transform="translate(0.07 -0.48)" />
        </g>
        <path class="stroke--round stroke--3px fill--yellow-dark stroke--blue" d="M493.92,46.4c-1.77.67-3.5,1.28-5.13,1.8-0.35-2-.7-4-1-6-0.39-2.22-.7-4.76.72-6.51s3.9-2.15,5.53-3.4a11.67,11.67,0,0,0-.09,3.64C495.09,42.89,497.37,45.1,493.92,46.4Z" transform="translate(0.07 -0.48)" />
    </g>
    <g class="chain-bottom">
        <line class="stroke--round fill--teal-light stroke--2px stroke--blue" x1="118.07" y1="258.52" x2="264.08" y2="298.2" />
        <line class="stroke--round stroke--dasharray stroke--3px fill--teal-light stroke--blue chain-move chain-move--reverse" x1="118.07" y1="258.52" x2="264.08" y2="298.2" />
    </g>
    <g class="chain-ring-crank-pedal">
        <g class="chain-rings">
            <path class="stroke--blue stroke--2px fill--yellow-light" d="M286.66,247.9l-3.52-2.61-1.88,2.53a3.49,3.49,0,0,0-3.29,4.43l-10,13.51-10.11-14.39a3.46,3.46,0,0,0-3-4.23l-1.64-2.34-3.59,2.52,1.5,2.14a3.48,3.48,0,0,0,3.25,4.63l10,14.19-16.43,4.95a3.47,3.47,0,0,0-5.14,1.55l-2.84.85,1.27,4.2L244,279a3.49,3.49,0,0,0,5.27-1.59l16.39-4.93-0.31,16.12a3.44,3.44,0,0,0-.11,5.51l-0.07,3.67,4.39,0.09,0.07-3.77a3.45,3.45,0,0,0,.1-5.33L270,272.54l15.25,5.09a3.49,3.49,0,0,0,4.92,1.64l3.36,1.12,1.39-4.16-3.13-1a3.46,3.46,0,0,0-5.34-1.81l0,0-15-5,10.07-13.59a3.47,3.47,0,0,0,3.19-4.3Z" transform="translate(0.07 -0.48)" />
            <circle class="stroke--round fill--none stroke--2px stroke--blue" cx="267.56" cy="269.03" r="29.76" transform="translate(-105.97 202.33) rotate(-35.11)" />
            <circle class="stroke--round fill--none stroke--2px stroke--blue" cx="267.56" cy="269.03" r="22.76" transform="translate(-105.97 202.33) rotate(-35.11)" />
            <circle class="stroke--round fill--none stroke--2px stroke--blue" cx="267.56" cy="269.03" r="6.56" transform="translate(-105.97 202.33) rotate(-35.11)" />
        </g>
        <g class="crankarm-right">
            <path class="stroke--round stroke--blue stroke--3px fill--yellow-light" d="M274.86,263.24a8.71,8.71,0,0,1,2,5.17c0.1,2.66,45.48,41.23,45.48,41.23l-3.9,3.88s-49.23-35.94-50.8-36A8.75,8.75,0,1,1,274.86,263.24Z" transform="translate(0.07 -0.48)" />
            <circle class="stroke--round fill--lavender stroke--2px stroke--blue" cx="268.17" cy="267.95" r="2.33" />
        </g>
        <g class="pedal-right">
            <g class="pedal-right-inner">
                <rect class="stroke--round stroke--blue stroke--3px fill--yellow-light" x="296.94" y="305.36" width="44.03" height="10.5" transform="translate(-1.86 1.51) rotate(-0.36)" />
                <rect class="stroke--round stroke--3px fill--yellow-dark stroke--blue" x="304.57" y="305.36" width="28.76" height="10.5" transform="translate(-1.86 1.51) rotate(-0.36)" />
                <circle class="stroke--round stroke--3px fill--lavender stroke--blue" cx="318.95" cy="310.76" r="4.92" transform="translate(-1.86 1.51) rotate(-0.36)" />
            </g>
        </g>
    </g>
    <line class="line-front-wheel-short stroke--round stroke--3px fill--lavender stroke--blue" x1="549.05" y1="358.52" x2="572.68" y2="358.52" />
    <line class="line-front-wheel-long stroke--round stroke--3px fill--lavender stroke--blue" x1="417.76" y1="358.52" x2="528.05" y2="358.52" />
    <line class="line-rear-wheel stroke--round stroke--3px fill--lavender stroke--blue" x1="73.79" y1="358.52" x2="228.71" y2="358.52" />
</svg>